<?xml version="1.0" encoding="UTF-8"?>
<!DOCTYPE svg PUBLIC "-//W3C//DTD SVG 1.1//EN" "http://www.w3.org/Graphics/SVG/1.1/DTD/svg11.dtd">
<!-- Creator: CorelDRAW -->
<svg xmlns="http://www.w3.org/2000/svg" xml:space="preserve" width="263.559mm" height="81.4857mm" version="1.1" style="shape-rendering:geometricPrecision; text-rendering:geometricPrecision; image-rendering:optimizeQuality; fill-rule:evenodd; clip-rule:evenodd"
viewBox="0 0 9817.86 3035.43"
 xmlns:xlink="http://www.w3.org/1999/xlink"
 xmlns:xodm="http://www.corel.com/coreldraw/odm/2003">
 <defs>
  <style type="text/css">
   <![CDATA[
    .fil0 {fill:#F4CC54}
    .fil1 {fill:#F5CC54}
    .fil2 {fill:white}
   ]]>
  </style>
 </defs>
 <g id="Camada_x0020_1">
  <metadata id="CorelCorpID_0Corel-Layer"/>
  <g id="_2051600371056">
   <path class="fil0" d="M4977.41 315.35l147.82 0 0 1221.95 -616.84 -940.17c-112.23,-160.25 -12.37,-124.1 -408.06,-124.1l0 404.04c0,29.63 198.97,243.05 234.2,278.25 33.39,33.36 46.21,74.42 91.01,86.38l0 -206.95 689.84 1034.75 335.06 0 0.93 -1588.12c-17.01,-87.3 -10.78,-60.41 -10.78,-166.03 209.36,0 194.8,22.34 17.24,-155.21 -43.02,-43.02 -121.57,-131.02 -165.07,-160.14 -39.62,10.58 -59.05,44.24 -86.23,71.44 -41.93,41.98 -218.11,202.66 -229.12,243.91z"/>
   <path class="fil1" d="M3262.68 2069.51c370.65,0 327.07,26.68 325.38,-98.37l-0.18 -926.53c24.73,16.56 32.75,34.98 49.37,59.04 13.85,20.05 30.18,40.95 47.04,61.36l140.08 194.99c17.96,23.63 32.01,45.07 49.27,68.99l448.48 615.84c14.34,16.67 6.78,24.69 34.43,24.69l315.35 0 0 -335.06 -268.61 -352.24c-22.67,-29.97 -14.74,-25.01 -46.75,-41.95l0 187.24 -730.64 -993.94c-67.86,-87.48 -5.37,-60.52 -363.24,-60.52l0 1596.48z"/>
   <path class="fil0" d="M5696.81 502.59l0 1537.35c0,22.7 6.85,29.56 29.56,29.56l1044.61 0 0 -266.08c0,-22.71 -6.85,-29.57 -29.56,-29.57l-719.4 0c0,-414.76 -32.78,-355.31 128.1,-354.79l315.38 0.03c154.2,0.5 128.1,42.33 128.1,-236.53 0,-26.62 -4.7,-27.17 -9.85,-49.28l-561.72 0 0 -364.63 679.98 0c22.71,0 29.56,-6.86 29.56,-29.57l0 -236.51c0,-22.7 -6.85,-29.56 -29.56,-29.56l-975.63 0c-22.71,0 -29.56,6.86 -29.56,29.56z"/>
   <path class="fil0" d="M6800.55 1202.28c0,150.98 -8.33,159.24 25.62,309.45 132.46,586.13 935.35,778.19 1372.8,330.15 22.66,-23.21 46.8,-36.61 50.24,-77.87 -47.55,-12.7 -171.79,-152.99 -236.51,-187.24 -29.55,25.68 -40.62,50.22 -71.66,76.16 -137.99,115.34 -339.37,157.29 -515.78,87.51 -158.94,-62.87 -279.79,-239.29 -279.79,-400.19 0,-188.65 -2.64,-297.94 140.43,-441.01 50.57,-50.57 56.47,-60.28 125.58,-91.23 104.72,-46.9 217.61,-48.04 327.54,-21.89 96.97,23.07 209.34,98.26 263.83,179.64 52.78,-12.3 138.1,-102.49 184.2,-141.01 17.04,-14.24 52.62,-43.05 62.17,-56.09 -8.93,-33.43 -78.34,-96.7 -106.91,-119.75 -19.68,-15.87 -42.69,-35.5 -60.98,-47.42 -237.96,-155.09 -467.74,-185.1 -741.05,-111.07 -38.63,10.46 -37.28,14.2 -70.9,27.65 -29.23,11.7 -37.47,11.85 -62.97,25.72 -22.6,12.29 -41.61,24.68 -61.07,37.48l-111.06 86.03c-29.06,27.85 -60.36,70.32 -84.69,102.56 -20.16,26.72 -20.35,29.83 -37.62,60.92 -14.39,25.9 -23.23,34.7 -35.56,62.99 -36.23,83.12 -75.84,210.14 -75.84,308.5z"/>
   <path class="fil0" d="M0.74 1192.43c0,120.97 -6.95,214.95 21.81,332.97l24.58 64.11c77.17,200.95 225.56,362.82 427.9,439.32 264.36,99.96 550.66,77.55 781.9,-72.95 42.06,-27.37 182.61,-129.87 182.61,-172.16 0,-30.52 -29.15,-37.43 -51.57,-56.84 -53.53,-46.32 -121.42,-116.5 -184.95,-150.11 -165.09,246.53 -642.28,304.84 -823.07,-73.71 -62.84,-131.57 -54.51,-318.33 -0.87,-454.59 21.58,-54.82 54.76,-105.98 91.88,-144.63 119.68,-124.62 296.87,-161.15 476.27,-115.87 47.99,12.11 59.47,24.98 101.53,46.29 83.57,42.35 103.11,90.66 164.12,131.52 33.46,-22.41 201.8,-159.97 226.66,-197.1 -19.05,-81.76 -220.4,-217.14 -304.08,-247.79 -100.87,-36.94 -66.6,-30.31 -176.12,-50.55 -160.54,-29.66 -197.79,-21.75 -363.21,6.79 -62.28,10.74 -95.44,26.79 -143.38,43.86 -166.83,59.4 -298.55,214.26 -378.96,370 -37.76,73.13 -73.05,195.09 -73.05,301.43z"/>
   <path class="fil1" d="M8308.33 768.67l374.48 0 0 1271.27c0,22.7 6.85,29.56 29.56,29.56l275.93 0c22.71,0 29.57,-6.86 29.57,-29.56l0 -1271.27 354.77 0c35.95,0 34.12,-51.66 53.22,-134.03 9.81,-42.29 24.67,-119.08 25.62,-161.62l-1093.88 0c-8.64,103.81 -49.27,185.5 -49.27,295.64z"/>
   <path class="fil0" d="M1557.8 1231.85c0,181.1 -10.8,225.65 67.69,395.48 93.97,203.34 358.31,402.76 563.01,402.76 205.89,0 258.63,17.7 443.6,-78.7 242.43,-126.36 384.2,-368.76 384.2,-670.26 0,-105.93 -52.91,-304.26 -108.4,-344.92 -41.84,11.17 -98.55,86.07 -98.55,88.69 0,47.3 190.46,381.46 -105.7,692.54 -196,205.88 -530.05,234.03 -761.61,66.36 -19.15,-13.86 -65.62,-49.66 -80.44,-67.38 -218.78,-261.65 -228.63,-578.43 2.66,-818.66l79.61 -68.21c186.08,-125.95 417.2,-148 619.11,-41.17 59.09,-88.24 204.64,-89.26 -70.16,-186.07 -145.35,-51.21 -363.92,-31.52 -498.26,31.55 -82.96,38.95 -147.53,76.28 -207.73,137.18 -114.31,115.64 -229.04,277.54 -229.04,460.8z"/>
   <path class="fil0" d="M1843.59 1290.98c0,181.94 87.34,336.72 232.84,407.72 198.65,96.94 451.33,44.8 573.64,-143.25 72.75,-111.86 104.92,-307.03 41.04,-402.44 -167.66,88.72 -88.9,153.62 -131.68,262.51 -77.64,197.62 -341.59,245.36 -492.08,95.17 -118.94,-118.71 -109.5,-371.36 87.96,-469.72 88,-43.83 103.5,-8.26 177.17,-29.78 40.77,-11.91 92.87,-73.49 102.41,-114.4 -135.22,-71.55 -349.24,-19.61 -470.86,100.72 -61.51,60.86 -120.43,187.87 -120.43,293.47z"/>
   <path class="fil0" d="M2158.94 1290.98c0,40.84 1.53,80.17 37.46,110.37 87.76,73.75 184.37,22.24 211.8,-58.2 28.33,-83.1 -2.61,-47.82 88.27,-138.4l339.83 -340.15c118,-120.02 75.4,33.4 281.03,-172.29 20.39,-20.4 33.63,-34.19 54.36,-54.04 29.24,-27.99 40.58,-25.52 41.72,-76.54 -260.9,0 -148.43,-20.67 -187.24,-187.24 -44.85,3.73 -69.02,44.37 -120.72,96.08 -229.85,229.85 -51.3,153.27 -172.28,271.18l-389.29 389.24c-72.92,75.47 -91.3,31.68 -147.54,79.12 -18,15.18 -37.39,49.94 -37.39,80.87z"/>
   <path class="fil2" d="M7027.21 3025.42l88.69 0 0 -542.02c0,-49.53 -8.86,-44.12 -9.86,-88.69l124.43 309.18c19.97,56.16 37.99,100.86 59.88,156.93 19.13,49 50.96,116.9 62.07,164.59l78.84 0 246.37 -630.71c0,62.51 -9.85,82.28 -9.85,147.82l0 482.89 98.55 0 0 -709.54c0,-47.51 -92.88,-29.57 -137.97,-29.57l-171.75 449.11c-20.84,51.94 -42.24,97.61 -54.92,152.04 -26.67,-19.54 -19.83,-26.36 -33.87,-64.68l-144.94 -377.37c-17.28,-42.71 -46.61,-111.47 -57.71,-159.1l-137.97 0 0 739.11z"/>
   <path class="fil2" d="M4573.36 2946.58l-137.97 0 0 -581.43c150.96,0 325.18,-2.79 378.75,153.41 70.24,204.84 -12.81,428.02 -240.78,428.02zm-236.51 -630.71l0 709.54 246.37 0c187.12,0 344.92,-130.92 344.92,-315.35 0,-148.3 9.37,-231.11 -110.56,-342.77 -105.76,-98.46 -299.2,-80.99 -451.17,-80.99 -22.71,0 -29.57,6.86 -29.57,29.57z"/>
   <path class="fil2" d="M562.46 2404.57l7.16 12.55c27.93,58.94 72.93,213.39 111.1,292.95l-226.66 0c20.76,-89.13 84.46,-202.72 108.4,-305.5zm-325.21 620.85l98.55 0c5.49,-66.05 62.9,-158.27 78.84,-226.66l295.64 0c33.67,70.17 55.29,157.04 88.69,226.66l88.69 0c-3.2,-38.5 -263.83,-697.61 -285.79,-739.11l-78.84 0 -285.79 739.11z"/>
   <path class="fil2" d="M3223.26 2414.42l19.71 0c5.61,67.46 92.93,228.18 98.55,295.64l-216.81 0c5.08,-61.07 92.08,-217.89 98.55,-295.64zm-315.35 611l88.69 0c33.67,-70.17 55.29,-157.04 88.69,-226.66l295.64 0c10.94,46.99 67.06,185.78 88.69,226.66l88.69 0 -285.79 -739.11 -78.84 0 -215.39 553.28c-22.7,56.8 -56.8,127.5 -70.39,185.83z"/>
   <path class="fil2" d="M5775.65 3025.42l413.9 0 0 -78.84 -325.21 0 0 -266.08 305.5 0 0 -78.84 -305.5 0 0 -226.66 295.64 0c38.32,0 29.57,-25.28 29.57,-88.69l-413.9 0 0 739.11z"/>
   <path class="fil2" d="M1636.64 2631.23l0 59.13c0,189.04 118.75,344.92 305.5,344.92 80.08,0 156.5,4.1 226.66,-29.56l0 -78.84c-77.01,17.94 -94.76,29.56 -187.24,29.56 -350.94,0 -304.34,-591.29 -29.57,-591.29 182.8,0 134.76,23.56 206.95,29.57 14.12,-26.69 26.51,-42.13 29.56,-78.84 -65.4,-15.24 -96.67,-39.42 -197.1,-39.42 -208.55,0 -354.77,147.19 -354.77,354.77z"/>
   <path class="fil2" d="M8791.21 2779.05l0 246.37 88.69 0c0,-304.02 -29.66,-240.5 85.54,-446.62 29.51,-52.8 146.82,-242.56 150.98,-292.49l-88.69 0c-31.8,60.1 -176.79,319.79 -187.24,364.63 -21.58,-15.81 -189.02,-329.96 -197.1,-364.63l-98.55 0c15.25,65.49 246.37,431.04 246.37,492.74z"/>
   <path class="fil0" d="M9688 748.96c-129.01,0 -169.43,-170.98 -44.03,-223.8 72.84,-30.68 178.32,42.57 143.71,145.36 -11.54,34.26 -58.61,78.44 -99.69,78.44zm-19.71 19.71c63.9,0 105.98,-21 133.47,-73.48 66.24,-126.46 -85.26,-272.45 -214.16,-164.87 -101.5,84.71 -20.34,238.35 80.68,238.35z"/>
   <path class="fil0" d="M9683.07 581.43l24.64 0 -24.64 0zm-54.2 68.99c0,52.53 -33.81,33.15 19.71,68.98 13.15,-27.4 9.85,-19.08 9.85,-59.13 64.08,17.11 14.76,42.02 78.84,59.13 -3.66,-44.03 -18.29,-36.52 -14.35,-65.83 2.39,-17.76 17.61,-33.97 24.21,-62.28l-8.47 -11.24c-0.96,-1.04 -3.27,-4.13 -4.5,-5.36 -1.23,-1.23 -3.33,-3.8 -4.78,-5.08 -28.07,-24.84 -9.26,-17.74 -100.51,-17.74l0 98.55z"/>
  </g>
 </g>
</svg>
